<?xml version="1.0" encoding="UTF-8" standalone="no"?>
<!-- Created with Inkscape (http://www.inkscape.org/) -->

<svg
   version="1.1"
   id="svg1"
   width="540"
   height="540"
   viewBox="0 0 540 540"
   xmlns="http://www.w3.org/2000/svg"
   xmlns:svg="http://www.w3.org/2000/svg">
  <defs
     id="defs1">
    <linearGradient
       id="swatch7">
      <stop
         style="stop-color:#060000;stop-opacity:1;"
         offset="0"
         id="stop7" />
    </linearGradient>
  </defs>
  <g
     id="g1">
    <path
       style="fill:#af85cf;fill-opacity:1"
       d="m 269.88796,534.10278 -1.63287,-0.062 -22,-10.6552 -22,-10.6551 -22.9815,-11.5332 -22.9815,-11.5332 -7.13604,-14.5 -7.13604,-14.5 -6.88246,-3.2564 -6.88246,-3.2565 -32.9065,-14.85756 -32.906516,-14.85755 -5.46434,-8.88599 -5.46433,-8.88598 -11.85006,-19.79763 -11.85006,-19.79762 3.7209,2.09906 3.72089,2.09907 17.15397,12.69856 17.15397,12.69856 8.846026,6.43068 8.84605,6.43068 15,11.10904 15,11.10903 7.29135,5.3356 7.29136,5.3356 0.43569,-0.4357 0.43569,-0.43569 7.44111,-25.93962 7.44111,-25.93962 9.67389,-33.5 9.67389,-33.5 5.32237,-18.5 5.32236,-18.5 11.69601,-40.5 11.69601,-40.5 8.97801,-31 8.978,-31 4.94243,-17.5 4.94244,-17.5 1.90933,-6.00001 1.90933,-5.999998 2.10216,-7.25 2.10215,-7.25 h 11.21568 11.21568 l 2.10415,7.75 2.10414,7.75 8.70425,30.000008 8.70425,30 11.51174,40 11.51173,40 8.33138,29 8.33137,29 10.15739,35 10.15738,35 11.06048,38.5 11.06048,38.5 0.31503,0.35909 0.31503,0.35909 3.30757,-2.31128 3.30758,-2.31129 22.5,-16.66162 22.5,-16.66163 23.25077,-16.92102 23.25076,-16.92103 3.09493,-1.82822 3.09493,-1.82822 -1.06562,1.86307 -1.06561,1.86306 -16.28008,26.98261 -16.28008,26.98261 -21.5,9.70862 -21.5,9.70864 -18.20511,8.3087 -18.20511,8.3088 -7.44569,15.0002 -7.44568,15.0001 -14.34921,6.948 -14.3492,6.9479 -30.36713,14.8019 -30.36712,14.8019 z m -0.20735,-27.9943 0.42553,0.056 21.78621,-10.6574 21.78622,-10.6574 -0.48298,-0.7815 -0.48299,-0.7815 -20.48536,-8.0611 -20.48536,-8.0611 h -1.79534 -1.79534 l -20.44806,8.0623 -20.44805,8.0624 -0.91284,0.9005 -0.91284,0.9005 2.41284,0.949 2.41284,0.949 19.5,9.5322 19.5,9.5322 z m -73.21712,-37.9441 h 0.76986 l 15.51087,-6.1834 15.51087,-6.1835 14,-5.7441 14,-5.7441 0.28607,-8.3763 0.28607,-8.37633 -14.28607,-10.96106 -14.28607,-10.96106 -1.41764,-8.318 -1.41765,-8.318 2.64079,-5.38445 2.64078,-5.38446 3.77686,-4.18548 3.77686,-4.18548 3.21788,-1.34713 3.21788,-1.34713 h 25.06424 25.06424 l 3.26241,1.36312 3.26241,1.36312 4.0437,4.5939 4.04371,4.59389 2.375,4.47693 2.37501,4.47692 -1.18414,8.31606 -1.18413,8.31606 -3.7791,3.34383 -3.77911,3.34384 -10.77367,8.15616 -10.77367,8.15617 0.27367,8.36913 0.27367,8.36915 28.1494,11.2815 28.1494,11.2816 2.06571,0.6556 2.06571,0.6557 7.04502,-14.0632 7.04501,-14.06324 -6.46353,-22.74312 -6.46353,-22.74312 -8.95343,-31 -8.95343,-31 -7.653,-26.5 -7.65301,-26.5 -1.98251,-6.75 -1.9825,-6.75 h -37.33521 -37.33521 l -0.96051,1.25 -0.9605,1.25 -4.13534,14.5 -4.13533,14.5 -7.12617,24.5 -7.12617,24.5 -2.3394,8.5 -2.3394,8.5 -5.12181,17.5 -5.12182,17.5 -3.91512,14 -3.91513,14 -1.90421,6.5776 -1.90421,6.57761 6.84939,14.17237 6.84939,14.1724 z m 80.7292,-227.65025 21.93759,-0.39159 0.45411,-0.45411 0.45411,-0.4541 -6.07794,-20.77497 -6.07794,-20.77496 -8.74616,-30.7676 -8.74617,-30.7676 -0.74759,0.7676 -0.7476,0.7676 -5.97083,21 -5.97083,21 -8.59918,29.65957 -8.59917,29.65957 v 0.54836 0.54837 l 7.75,0.41272 7.75,0.41273 z m -133.1876,173.98273 -0.75,0.45049 -9,-6.48635 -9,-6.48636 -1.68174,-1.20146 -1.68175,-1.20146 4.03733,-14.45366 4.03733,-14.45366 12.39442,-43.74458 12.39441,-43.74458 v -1.86814 -1.86814 l -8.75,-12.11562 -8.75,-12.11562 -23.75,-0.0217 -23.750016,-0.0216 v 60.08333 60.08334 l -0.89936,-0.33334 -0.89936,-0.33333 -11.52662,-8.5 -11.52661,-8.5 -0.0706,-89.5 -0.0706,-89.5 64.998156,-48.75 64.99816,-48.750008 h 22.44456 22.4445 l -1.36694,4.75 -1.36695,4.75 -6.63004,23.000008 -6.63004,23 -5.57427,19 -5.57426,19 -2.75774,10 -2.75773,10 -3.64227,12.42785 -3.64227,12.42784 -1.12714,1.35812 -1.12714,1.35812 -16.40897,11.0419 -16.40897,11.04191 -0.54152,1.41117 -0.54152,1.41117 4.93943,6.76096 4.93943,6.76096 5.1295,7.52035 5.12949,7.52035 -7.49101,25.97965 -7.49101,25.97965 -11.97513,42.04876 -11.97513,42.04876 v 1.14222 1.14223 z M 115.5503,229.1644 h 25.79521 l 18.04161,-12.43707 18.04161,-12.43707 2.5474,-9.31293 2.5474,-9.31293 11.21035,-38.82209 11.21036,-38.82209 -0.46382,-0.46382 -0.46382,-0.46382 -21.88075,16.29996 -21.88076,16.29996 -35.25,26.47825 -35.250016,26.47825 v 18.2577 18.2577 z m 280.75721,186 h -0.55242 v -0.41572 -0.41572 l -13.43237,-46.83428 -13.43237,-46.83428 -16.66102,-58 -16.66101,-58 -7.32923,-25.5 -7.32923,-25.5 -8.55286,-30 -8.55285,-30.000008 -1.93395,-6.25 -1.93394,-6.25 h 22.44699 22.447 l 64.96242,48.681628 64.96242,48.68161 v 6.31839 6.31838 l -13.25,-0.004 -13.25,-0.004 -31.5,-23.62939 -31.5,-23.6294 -24.81434,-18.4686 -24.81434,-18.4686 -0.47733,0.47733 -0.47733,0.47733 12.47656,43.37499 12.47656,43.375 13.43788,47 13.43788,47 11.85583,41.75714 11.85582,41.75713 0.81907,-0.27302 0.81907,-0.27303 18.92682,-13.98411 18.92683,-13.98477 0.0255,-44.22971 0.0255,-44.22971 -20.5709,-0.27029 -20.57089,-0.27029 -3.30569,-10.19019 -3.30568,-10.19018 -0.64247,-2.55982 -0.64247,-2.55981 h 37.01905 37.01905 l 0.0102,1.75 0.0102,1.75 4e-5,62.48797 4e-5,62.48797 -2.26025,1.74432 -2.26024,1.74431 -13.5,9.74214 -13.5,9.74213 -23.19758,17.27558 -23.19757,17.27558 z m -347.790696,-88.6693 -0.26174,38.33071 -11.25,-18.68164 -11.25,-18.68164 -0.0373,-1.89907 -0.0373,-1.89906 11.28728,-56.29925 11.28727,-56.29925 0.26174,38.54925 0.26175,38.54925 z m 452.812966,21.64453 -10.57469,17.47522 0.0948,-77.97522 0.0948,-77.97523 8.92392,44 8.92393,44 2.84922,14 2.84921,14 -1.29322,2.5 -1.29323,2.5 z M 65.957334,158.52068 l -1.4045,0.85628 0.53225,-1.85628 0.53225,-1.85628 1.12979,-5.70192 1.12978,-5.70192 -1.19383,-2.29808 -1.19382,-2.29808 -11.34529,-19.58412 -11.34528,-19.58413 -1.6463,-6.415878 -1.64631,-6.41588 0.51438,-11.5 0.51437,-11.5 2.58454,-8 2.58453,-8 3.77559,-6.45947 3.77559,-6.45947 6.5,-6.61169 6.5,-6.61169 4.52268,-3.07047 4.52268,-3.07048 6.22748,-2.62111 6.22748,-2.62112 5.70994,-1.48725 5.70994,-1.48725 h 9.079816 9.0798 l 5.88524,1.53291 5.88523,1.53291 4.57487,2.51474 4.57486,2.51474 3.09504,2.79981 3.09505,2.7998 5.66883,6.68238 5.66884,6.68236 7.13119,9.72017 7.1312,9.72018 0.13204,0.19378 0.13204,0.19378 3.97288,-0.88975 3.97289,-0.88976 45.5,-8.15523 45.5,-8.15523 16,2.71967 16,2.71968 30,5.48527 30,5.48527 4.5,0.42162 4.5,0.42162 5.44328,-7.70651 5.44329,-7.7065 7.74229,-9.56885 7.74229,-9.56885 4.8646,-3.27014 4.8646,-3.27016 5.44982,-2.11572 5.44983,-2.11571 10.24595,-0.49504 10.24596,-0.49504 5.97439,1.17539 5.9744,1.17539 6.99818,2.88582 6.99818,2.88582 4.78147,3.26317 4.78147,3.26317 6.07125,6.05653 6.07126,6.05651 4.12098,7 4.12098,7 2.68994,8 2.68994,8 0.50657,11.78576 0.50656,11.78576 -1.74443,6.44445 -1.74443,6.444448 -5.49741,9.2698 -5.4974,9.26979 -6.89491,12.1435 -6.89491,12.1435 1.39909,7.3565 1.39909,7.3565 -0.15108,0.10959 -0.15109,0.10959 -62.5,-46.84348 -62.5,-46.843498 -79.41131,-0.0161 -79.41131,-0.0161 -61.53531,46.250008 -61.535326,46.25 z m 15.79774,-39.38817 0.5,-0.0113 13,-9.74813 13.000016,-9.748138 20.20192,-15.24795 20.20191,-15.24795 0.47345,-0.76606 0.47345,-0.76605 -6.17536,-8.64787 -6.17537,-8.64786 -4.59988,-5.32776 -4.59988,-5.32775 -5.33295,-2.90256 -5.33295,-2.90255 -7.14655,-0.45863 -7.14657,-0.45864 -5.890526,1.71242 -5.89052,1.71242 -3.9855,2.03325 -3.9855,2.03325 -5.67707,5.415 -5.67707,5.41501 -3.01581,6.20988 -3.01582,6.20985 -1.10171,5.29922 -1.10171,5.29922 0.006,5.20078 0.006,5.20078 1.07324,4 1.07325,4 7.67118,13.239728 7.67113,13.23973 z m 376.176776,-0.0182 0.67676,0.0501 1.42748,-2.75 1.42749,-2.75 3.80577,-6.5 3.80578,-6.50001 3.03042,-5.462938 3.03042,-5.46294 0.41209,-8.03706 0.4121,-8.03706 -1.68634,-6.5 -1.68634,-6.5 -2.66619,-4.94138 -2.6662,-4.94139 -4.81709,-4.82809 -4.81709,-4.82808 -5.68291,-2.84273 -5.68291,-2.84272 -5.36118,-1.26422 -5.36118,-1.2642 -6.81643,0.48771 -6.81643,0.4877 -4.32239,2.22598 -4.32239,2.22598 -3.3477,3.16272 -3.3477,3.16272 -8.53961,11.32698 -8.53961,11.32698 1.38731,1.36732 1.38731,1.36732 32.5,24.50563 32.5,24.505648 z"
       id="path19" />
  </g>
</svg>
